<?xml version="1.0" encoding="utf-8"?>
<!-- Generator: Adobe Illustrator 28.2.0, SVG Export Plug-In . SVG Version: 6.00 Build 0)  -->
<svg version="1.1" id="Layer_1" xmlns="http://www.w3.org/2000/svg" xmlns:xlink="http://www.w3.org/1999/xlink" x="0px" y="0px"
	 viewBox="0 0 51 32" style="enable-background:new 0 0 51 32;" xml:space="preserve">
<style type="text/css">
	.st0{fill:none;stroke:#000000;stroke-linejoin:round;stroke-miterlimit:10;}
	.st1{fill:none;stroke:#000100;stroke-miterlimit:10;}
	.st2{fill:none;stroke:#000100;stroke-linecap:round;stroke-miterlimit:10;}
</style>
<g>
	<g>
		<polyline class="st0" points="35.2,29.6 14.6,29.6 14.6,21.9 32.8,21.9 		"/>
		<g>
			<line class="st0" x1="16.4" y1="24" x2="17.4" y2="24"/>
			<line class="st0" x1="18.4" y1="24" x2="19.4" y2="24"/>
			<line class="st0" x1="20.4" y1="24" x2="21.3" y2="24"/>
			<line class="st0" x1="22.4" y1="24" x2="23.3" y2="24"/>
			<line class="st0" x1="24.4" y1="24" x2="25.3" y2="24"/>
			<line class="st0" x1="26.4" y1="24" x2="27.3" y2="24"/>
			<line class="st0" x1="28.4" y1="24" x2="29.3" y2="24"/>
		</g>
		<g>
			<line class="st0" x1="19.3" y1="25.7" x2="20.2" y2="25.7"/>
			<line class="st0" x1="21.3" y1="25.7" x2="22.2" y2="25.7"/>
			<line class="st0" x1="23.3" y1="25.7" x2="24.2" y2="25.7"/>
			<line class="st0" x1="25.3" y1="25.7" x2="26.2" y2="25.7"/>
			<line class="st0" x1="27.3" y1="25.7" x2="28.2" y2="25.7"/>
			<line class="st0" x1="29.2" y1="25.7" x2="30.2" y2="25.7"/>
			<line class="st0" x1="31.2" y1="25.7" x2="32.1" y2="25.7"/>
		</g>
		<g>
			<line class="st0" x1="18.6" y1="27.5" x2="19.5" y2="27.5"/>
		</g>
		<line class="st0" x1="30.2" y1="24" x2="32.1" y2="24"/>
		<line class="st0" x1="16.4" y1="25.7" x2="18.3" y2="25.7"/>
		<line class="st0" x1="16.4" y1="27.5" x2="17.6" y2="27.5"/>
		<line class="st0" x1="20.4" y1="27.5" x2="29.3" y2="27.5"/>
		<line class="st0" x1="30.2" y1="27.5" x2="31.2" y2="27.5"/>
	</g>
</g>
<g>
	<g>
		<path class="st1" d="M37.1,26.7c0,0.9-0.8,1.7-1.9,1.7h-0.1c-1,0-1.9-0.8-1.9-1.7v-2.5c0-0.9,0.8-1.7,1.9-1.7h0.1
			c1,0,1.9,0.8,1.9,1.7V26.7z"/>
		<line class="st2" x1="35.2" y1="24" x2="35.2" y2="24.9"/>
	</g>
</g>
<path class="st0" d="M35,16.7c0,0.3-0.2,0.5-0.5,0.5h-0.5H15.3c-0.3,0-0.5-0.2-0.5-0.5V5c0-0.3,0.2-0.5,0.5-0.5h19.1
	C34.7,4.5,35,4.7,35,5v11.4V16.7z"/>
<g>
	<line class="st0" x1="21.6" y1="19.9" x2="28.3" y2="19.9"/>
	<g>
		<line class="st0" x1="23.2" y1="16.9" x2="22.9" y2="19.9"/>
		<line class="st0" x1="26.7" y1="16.9" x2="27" y2="19.9"/>
	</g>
</g>
</svg>
