<svg xmlns="http://www.w3.org/2000/svg" width="51" height="32" viewBox="0 0 51 32">
  <g id="lenovo-icon-services-solutions" transform="translate(194 -3887)">
    <rect id="Rectangle_1" data-name="Rectangle 1" width="51" height="32" transform="translate(-194 3887)" fill="#fff" opacity="0"/>
    <g id="Group_16" data-name="Group 16" transform="translate(-834.547 4192.619)">
      <g id="Group_15" data-name="Group 15" transform="translate(653.036 -303.512)">
        <path id="Path_3" data-name="Path 3" d="M46.569,38.968a4.74,4.74,0,1,1,4.74-4.74A4.74,4.74,0,0,1,46.569,38.968Zm0-8.1a3.363,3.363,0,1,0,3.363,3.363A3.363,3.363,0,0,0,46.569,30.869Z" transform="translate(-39.148 -29.488)"/>
        <path id="Path_4" data-name="Path 4" d="M34.189,73.17l-.024-.667c-.01-.316-.285-7.755,0-10.314a5,5,0,0,1,.268-.98l.014-.041a10.038,10.038,0,0,1,1.166-2.352,10.831,10.831,0,0,1,1.407-1.781c.086-.086.159-.155.21-.2l.939,1c-.044.041-.107.1-.182.176a9.463,9.463,0,0,0-1.221,1.551,9.062,9.062,0,0,0-1.018,2.05l-.014.041a4.8,4.8,0,0,0-.2.695c-.227,2.026-.079,7.525-.017,9.44l9.461-.086.014,1.375-10.8.1Z" transform="translate(-34.036 -47.426)"/>
        <path id="Path_5" data-name="Path 5" d="M73.084,77.8l-.688-.864a4.649,4.649,0,0,1-.488-.027l-.791.774-.4-.138a5.259,5.259,0,0,1-1.2-.593l-.351-.23.121-1.111c-.113-.121-.222-.247-.31-.358l-1.122-.013-.186-.381a5.726,5.726,0,0,1-.258-.619,5.472,5.472,0,0,1-.179-.647l-.086-.416.894-.715.027-.437L67.26,71.2l.134-.4a5.555,5.555,0,0,1,.581-1.2l.23-.358,1.1.124a4.622,4.622,0,0,1,.364-.323l.01-1.111.381-.186a5.065,5.065,0,0,1,.615-.258,5.939,5.939,0,0,1,.643-.178l.416-.086.691.87a3.826,3.826,0,0,1,.485.031l.79-.778.4.138a5.4,5.4,0,0,1,1.2.588l.354.23-.124,1.111c.113.121.222.247.31.358l1.124.014.186.378a5.11,5.11,0,0,1,.258.619,5.789,5.789,0,0,1,.178.647l.086.416-.877.7c0,.141-.01.306-.024.471l.784.8-.134.4a5.41,5.41,0,0,1-.584,1.2l-.23.358L75.5,75.65c-.121.11-.244.217-.351.306l-.01,1.128-.381.186a5.064,5.064,0,0,1-.615.258,5.935,5.935,0,0,1-.643.178l-.416.086Zm-.059-2.283.593.741c.024-.007.052-.017.074-.024a.747.747,0,0,0,.074-.027l.007-.921.268-.2a5.349,5.349,0,0,0,.67-.593l.237-.282.942.107c.024-.048.052-.1.074-.148l-.667-.681.074-.358a5.741,5.741,0,0,0,.048-.9l-.007-.337.718-.574c-.01-.027-.017-.055-.027-.082s-.021-.055-.027-.079l-.918-.01-.2-.268a5.718,5.718,0,0,0-.593-.678l-.278-.237.1-.946a1.219,1.219,0,0,0-.148-.074l-.678.667L73,69.533a3.058,3.058,0,0,0-.85-.055l-.364.027-.593-.741a.719.719,0,0,0-.079.027l-.079.027-.007.95-.306.2a3.1,3.1,0,0,0-.636.564l-.237.282-.942-.107c-.024.052-.052.1-.074.148l.622.636-.1,1.655-.695.554c.01.027.017.055.027.082s.017.052.027.079l.918.01.2.268a5.422,5.422,0,0,0,.593.678l.278.237-.1.946c.052.027.1.052.148.074l.674-.661.358.074a2.945,2.945,0,0,0,.85.052l.37-.031Z" transform="translate(-55.755 -54.242)"/>
        <g id="Group_14" data-name="Group 14" transform="translate(7.283 6.584)">
          <path id="Path_6" data-name="Path 6" d="M64.569,74.491a9.383,9.383,0,0,1-6.627-16.006l.973.973a7.987,7.987,0,1,0,5.668-2.352h-.017a7.956,7.956,0,0,0-1.427.13l-.247-1.352a9.417,9.417,0,0,1,1.672-.155,9.2,9.2,0,0,1,4.2.987A9.38,9.38,0,0,1,64.57,74.483Z" transform="translate(-55.204 -53.288)"/>
          <path id="Path_7" data-name="Path 7" d="M77.792,54.81l-2.672-3.3,2.957-2.882.963.987-2.057,2,1.881,2.325Z" transform="translate(-68.273 -48.63)"/>
        </g>
        <path id="Path_8" data-name="Path 8" d="M80.279,81.578a1.149,1.149,0,1,1,1.149-1.149,1.149,1.149,0,0,1-1.149,1.149Z" transform="translate(-63.62 -62.155)"/>
      </g>
    </g>
  </g>
</svg>
