<svg xmlns="http://www.w3.org/2000/svg" width="51" height="32" viewBox="0 0 51 32">
  <g id="lenovo-icon-support" transform="translate(133 -3887)">
    <rect id="Rectangle_1" data-name="Rectangle 1" width="51" height="32" transform="translate(-133 3887)" fill="#fff" opacity="0"/>
    <g id="icon-support" transform="translate(-123.407 3888.064)">
      <g id="lenovo_headset-32px" transform="translate(0 -0.011)">
        <g id="Group_25903" data-name="Group 25903" transform="translate(0 9.977)">
          <path id="Path_32988" data-name="Path 32988" d="M8.993,16.786H7.826V11.88c-.186-.02-.368-.036-.458-.036h-.66A4.817,4.817,0,0,0,2.068,16.7H.9a6,6,0,0,1,5.807-6.027h.66c.3,0,.985.093,1.121.107l.506.067v5.935Z" transform="translate(-0.9 -10.673)" fill="#171717"/>
          <path id="Path_32989" data-name="Path 32989" d="M7.367,23.067h-.66A6,6,0,0,1,.9,17.038H2.067a4.817,4.817,0,0,0,4.64,4.856h.66c.093,0,.268-.016.458-.036v-4.9H8.992v5.935l-.506.067c-.134.018-.814.107-1.121.107Z" transform="translate(-0.9 -11.089)" fill="#171717"/>
        </g>
        <path id="Path_32990" data-name="Path 32990" d="M6.256,11.036l-1.167-.008A11.556,11.556,0,0,1,8.337,2.7,9.75,9.75,0,0,1,15.4,0a9.761,9.761,0,0,1,7.126,2.7,11.562,11.562,0,0,1,3.249,8.327l-1.167.009a10.407,10.407,0,0,0-2.9-7.5,8.462,8.462,0,0,0-6.222-2.368h-.1A8.484,8.484,0,0,0,9.152,3.537a10.407,10.407,0,0,0-2.9,7.5Z" transform="translate(-1.176 0.01)" fill="#171717"/>
        <g id="Group_25904" data-name="Group 25904" transform="translate(20.11 10.074)">
          <path id="Path_32991" data-name="Path 32991" d="M23.6,16.886H22.434V10.951l.506-.067c.134-.018.814-.107,1.121-.107h.66A6,6,0,0,1,30.528,16.8H29.36a4.817,4.817,0,0,0-4.64-4.856h-.66c-.093,0-.269.016-.458.036V16.89Z" transform="translate(-22.433 -10.777)" fill="#171717"/>
          <path id="Path_32992" data-name="Path 32992" d="M24.72,23.163h-.66c-.3,0-.985-.089-1.121-.107l-.506-.067V17.054H23.6V21.96c.186.02.368.036.458.036h.66a4.817,4.817,0,0,0,4.64-4.856h1.169a6,6,0,0,1-5.807,6.026Z" transform="translate(-22.433 -11.192)" fill="#171717"/>
        </g>
        <path id="Path_32993" data-name="Path 32993" d="M20,29.906V28.742a5.663,5.663,0,0,0,5.48-5.821h1.167A6.832,6.832,0,0,1,20,29.906Z" transform="translate(-2.162 -1.507)" fill="#171717"/>
        <path id="Path_32994" data-name="Path 32994" d="M19.98,31.72H14.6V27.76h5.381Zm-4.214-1.167h3.046V28.927H15.766Z" transform="translate(-1.805 -1.827)" fill="#171717"/>
      </g>
    </g>
  </g>
</svg>
